<?xml version="1.0" encoding="UTF-8"?>
<!DOCTYPE svg PUBLIC "-//W3C//DTD SVG 1.1//EN" "http://www.w3.org/Graphics/SVG/1.1/DTD/svg11.dtd">
<!-- Creator: CorelDRAW -->
<svg xmlns="http://www.w3.org/2000/svg" xml:space="preserve" style="shape-rendering:geometricPrecision; text-rendering:geometricPrecision; image-rendering:optimizeQuality; fill-rule:evenodd; clip-rule:evenodd"
viewBox="0 0 49.5018 40.9016"
 xmlns:xlink="http://www.w3.org/1999/xlink">
 <defs>
  <style type="text/css">
   <![CDATA[
    .str0 {stroke:#57C5A0;stroke-width:0.2}
    .str1 {stroke:#57C5A0;stroke-width:0.5}
    .fil0 {fill:#57C5A0;fill-rule:nonzero}
   ]]>
  </style>
 </defs>
 <g id="Слой_x0020_1">
  <metadata id="CorelCorpID_0Corel-Layer"/>
  <polygon class="fil0 str0" points="25.7376,0.1 25.7376,9.423 21.1956,9.423 30.2796,18.7461 39.3637,9.423 34.8217,9.423 34.8217,0.1 "/>
 </g>
 <g id="Слой_x0020_1_0">
  <metadata id="CorelCorpID_1Corel-Layer"/>
  <path class="fil0 str1" d="M22.4156 32.5818c-2.2285,0 -4.0349,1.8073 -4.0349,4.0338 0,2.2307 1.8064,4.036 4.0349,4.036 2.2275,0 4.0339,-1.8053 4.0339,-4.036 0,-2.2265 -1.8064,-4.0338 -4.0339,-4.0338zm15.1827 0c-2.2287,0 -4.0358,1.8073 -4.0358,4.0338 0,2.2307 1.8071,4.036 4.0358,4.036 2.2276,0 4.0336,-1.8053 4.0336,-4.036 0,-2.2265 -1.806,-4.0338 -4.0336,-4.0338zm-21.0576 -17.1308l-2.0424 -8.2759c-0.2207,-0.8914 -1.0252,-1.5235 -1.9412,-1.5235l-10.3053 0c-1.1061,0 -1.9987,0.8937 -2.0018,2.0016 0.0031,1.1001 0.8957,1.9956 2.0018,1.9977l8.7383 0 4.7236 19.1466c0.2178,0.8896 1.0255,1.5231 1.9381,1.5231l24.4484 0c0.8812,0 1.6622,-0.5847 1.9147,-1.4271l5.1532 -17.1839c0.0582,-0.1941 0.0837,-0.3884 0.0837,-0.5787 0,-0.8566 -0.5582,-1.6539 -1.4241,-1.9115l-0.002 0c-0.1923,-0.0594 -0.3843,-0.086 -0.5735,-0.086 -0.8585,0 -1.6561,0.5582 -1.9137,1.4252l-4.6042 15.354 0 0 -0.1204 0.409 -21.3926 0 -2.6806 -10.8706z"/>
 </g>
</svg>
