<?xml version="1.0" encoding="UTF-8"?>
<!DOCTYPE svg PUBLIC "-//W3C//DTD SVG 1.1//EN" "http://www.w3.org/Graphics/SVG/1.1/DTD/svg11.dtd">
<!-- Creator: CorelDRAW -->
<svg xmlns="http://www.w3.org/2000/svg" xml:space="preserve" width="35.5mm" height="24.5mm" style="shape-rendering:geometricPrecision; text-rendering:geometricPrecision; image-rendering:optimizeQuality; fill-rule:evenodd; clip-rule:evenodd"
viewBox="0 0 35.5 24.5"
 xmlns:xlink="http://www.w3.org/1999/xlink">
 <defs>
  <style type="text/css">
   <![CDATA[
    .str0 {stroke:#6E6E6E;stroke-width:2.5}
    .fil0 {fill:none}
   ]]>
  </style>
 </defs>
 <g id="Слой_x0020_1">
  <metadata id="CorelCorpID_0Corel-Layer"/>
  <path class="fil0 str0" d="M17.7642 1.25c-8.9295,0 -16.5142,10.7634 -16.5142,10.7634l0 0.4055c0,0 7.556,10.8311 16.4858,10.8311 8.9297,0 16.5142,-10.7629 16.5142,-10.7629l0 -0.4065c0,0 -7.556,-10.8306 -16.4858,-10.8306zm-0.0569 17.732l0 0c-3.0217,0 -5.4706,-2.9494 -5.4706,-6.5882 0,-3.6382 2.4489,-6.5882 5.4706,-6.5882 3.0215,0 5.4713,2.95 5.4713,6.5882 0,3.6388 -2.4498,6.5882 -5.4713,6.5882zm0 -9.6437c-1.3841,0 -2.5047,1.3502 -2.5047,3.0154 0,1.6657 1.1206,3.0164 2.5047,3.0164 1.3831,0 2.5045,-1.3507 2.5045,-3.0164 0,-1.6652 -1.1214,-3.0154 -2.5045,-3.0154z"/>
 </g>
</svg>
