<?xml version="1.0" encoding="UTF-8"?>
<!DOCTYPE svg PUBLIC "-//W3C//DTD SVG 1.1//EN" "http://www.w3.org/Graphics/SVG/1.1/DTD/svg11.dtd">
<!-- Creator: CorelDRAW -->
<svg xmlns="http://www.w3.org/2000/svg" xml:space="preserve" width="37.4545mm" height="36.7962mm" style="shape-rendering:geometricPrecision; text-rendering:geometricPrecision; image-rendering:optimizeQuality; fill-rule:evenodd; clip-rule:evenodd"
viewBox="0 0 37.4546 36.7963"
 xmlns:xlink="http://www.w3.org/1999/xlink">
 <defs>
  <style type="text/css">
   <![CDATA[
    .str0 {stroke:#6E6E6E;stroke-width:2.50001}
    .fil0 {fill:none}
   ]]>
  </style>
 </defs>
 <g id="__x0023_Layer_x0020_2">
  <metadata id="CorelCorpID_0Corel-Layer"/>
  <path class="fil0 str0" d="M16.636 2.59671c0,0 -3.27601,6.74672 -4.14051,8.52422 -1.91961,0.280201 -9.20652,1.3415 -9.20652,1.3415 -0.894402,0.1295 -1.6368,0.768002 -1.91981,1.6469 -0.0773002,0.245601 -0.1173,0.497801 -0.1192,0.749602 -0.001,0.644102 0.247501,1.2749 0.712102,1.7407 0,0 5.25501,5.27631 6.64082,6.66572 -0.333501,1.95621 -1.6008,9.37793 -1.6008,9.37793 -0.0227001,0.1375 -0.0346001,0.274401 -0.0346001,0.411901 -0.00190001,0.768102 0.353801,1.5036 0.972503,1.96661 0.728302,0.544901 1.6969,0.620102 2.49721,0.191601 0,0 6.52542,-3.48491 8.24342,-4.40441 1.7143,0.930002 8.21902,4.45521 8.21902,4.45521 0.799302,0.432801 1.7672,0.363101 2.49991,-0.1776 0.621502,-0.459801 0.981203,-1.1919 0.982403,-1.96131 0.000900002,-0.1361 -0.00980003,-0.274101 -0.0329001,-0.410501 0,0 -1.2225,-7.43142 -1.545,-9.38913 1.3936,-1.3806 6.68092,-6.62352 6.68092,-6.62352 0.464401,-0.463401 0.717502,-1.0925 0.719602,-1.7369 0.0012,-0.251501 -0.0355001,-0.504301 -0.113,-0.750802 -0.276501,-0.879202 -1.0179,-1.5236 -1.91001,-1.6585 0,0 -7.28192,-1.1059 -9.19912,-1.3972 -0.853202,-1.7826 -4.09231,-8.54862 -4.09231,-8.54862 -0.397001,-0.830402 -1.2192,-1.3576 -2.12251,-1.3601 -0.902902,-0.00260001 -1.729,0.519001 -2.13161,1.3467z"/>
 </g>
</svg>
